<svg version="1.0" xmlns="http://www.w3.org/2000/svg"
 width="16.000000pt" height="14.000000pt" viewBox="0 0 16.000000 14.000000"
 preserveAspectRatio="xMidYMid meet">

<g transform="translate(0.000000,14.000000) scale(0.100000,-0.100000)"
fill="#000000" stroke="none">
<path d="M10 87 c0 -53 30 -88 58 -70 12 7 22 7 34 -1 28 -17 58 18 58 71 0
39 -2 43 -25 43 -21 0 -25 -5 -25 -32 0 -25 -3 -29 -12 -20 -8 8 -15 9 -25 1
-10 -9 -13 -5 -13 20 0 26 -4 31 -25 31 -23 0 -25 -4 -25 -43z m40 -4 c0 -34
1 -35 18 -20 17 15 19 15 35 0 16 -16 17 -15 17 20 0 26 4 37 15 37 11 0 15
-11 15 -39 0 -45 -22 -71 -48 -54 -12 7 -22 7 -34 0 -26 -17 -48 9 -48 54 0
28 4 39 15 39 11 0 15 -11 15 -37z"/>
</g>
</svg>
